<?xml version="1.0" encoding="utf-8"?>
<!-- Generator: Adobe Illustrator 19.0.0, SVG Export Plug-In . SVG Version: 6.00 Build 0)  -->
<svg version="1.1" id="Layer_1" xmlns="http://www.w3.org/2000/svg" xmlns:xlink="http://www.w3.org/1999/xlink" x="0px" y="0px"
	 viewBox="0 0 276 144" style="enable-background:new 0 0 276 144;" xml:space="preserve">
<style type="text/css">
	.st0{fill:#100E0F;}
	.st1{clip-path:url(#SVGID_2_);}
	.st2{clip-path:url(#SVGID_4_);fill:#010101;}
</style>
<g>
	<g>
		<path class="st0" d="M99.4,98.6H88.5c-0.3,0-0.5,0.2-0.5,0.5v5.3c0,0.3,0.2,0.5,0.5,0.5h4.3v6.6c0,0-1,0.3-3.6,0.3
			c-3.1,0-7.5-1.1-7.5-10.7c0-9.6,4.5-10.9,8.8-10.9c3.7,0,5.3,0.6,6.3,1c0.3,0.1,0.6-0.2,0.6-0.5l1.2-5.2c0-0.1,0-0.3-0.2-0.4
			c-0.4-0.3-2.9-1.7-9.2-1.7c-7.3,0-14.8,3.1-14.8,18c0,14.9,8.6,17.1,15.8,17.1c6,0,9.6-2.6,9.6-2.6c0.1-0.1,0.2-0.3,0.2-0.4V99.1
			C99.9,98.8,99.7,98.6,99.4,98.6z"/>
		<path class="st0" d="M155.7,85.3c0-0.3-0.2-0.5-0.5-0.5H149c-0.3,0-0.5,0.2-0.5,0.5c0,0,0,11.9,0,11.9h-9.6V85.3
			c0-0.3-0.2-0.5-0.5-0.5h-6.2c-0.3,0-0.5,0.2-0.5,0.5v32.2c0,0.3,0.2,0.5,0.5,0.5h6.2c0.3,0,0.5-0.2,0.5-0.5v-13.8h9.6
			c0,0,0,13.8,0,13.8c0,0.3,0.2,0.5,0.5,0.5h6.2c0.3,0,0.5-0.2,0.5-0.5V85.3z"/>
		<g>
			<g>
				<path class="st0" d="M111,89.6c0-2.2-1.8-4-4-4c-2.2,0-4,1.8-4,4c0,2.2,1.8,4,4,4C109.2,93.6,111,91.8,111,89.6z"/>
				<path class="st0" d="M110.5,110.7c0-0.8,0-14.9,0-14.9c0-0.3-0.2-0.5-0.5-0.5h-6.1c-0.3,0-0.5,0.3-0.5,0.6c0,0,0,17.9,0,21.3
					c0,0.6,0.4,0.8,0.9,0.8c0,0,2.6,0,5.5,0c0.6,0,0.8-0.3,0.8-0.8C110.5,116.1,110.5,111.6,110.5,110.7z"/>
			</g>
		</g>
		<path class="st0" d="M179.1,95.4h-6.1c-0.3,0-0.5,0.2-0.5,0.5v15.8c0,0-1.6,1.1-3.8,1.1c-2.2,0-2.8-1-2.8-3.2c0-2.2,0-13.8,0-13.8
			c0-0.3-0.2-0.5-0.5-0.5h-6.2c-0.3,0-0.5,0.2-0.5,0.5c0,0,0,8.4,0,14.8c0,6.4,3.6,8,8.5,8c4,0,7.3-2.2,7.3-2.2s0.2,1.2,0.2,1.3
			c0.1,0.1,0.3,0.3,0.4,0.3l3.9,0c0.3,0,0.5-0.2,0.5-0.5l0-21.6C179.6,95.6,179.3,95.4,179.1,95.4z"/>
		<path class="st0" d="M195.7,94.7c-3.5,0-5.8,1.5-5.8,1.5V85.3c0-0.3-0.2-0.5-0.5-0.5h-6.2c-0.3,0-0.5,0.2-0.5,0.5v32.2
			c0,0.3,0.2,0.5,0.5,0.5c0,0,4.3,0,4.3,0c0.2,0,0.3-0.1,0.4-0.3c0.1-0.2,0.3-1.5,0.3-1.5s2.5,2.4,7.3,2.4c5.6,0,8.8-2.8,8.8-12.8
			C204.3,96,199.2,94.7,195.7,94.7z M193.3,112.8c-2.1-0.1-3.6-1-3.6-1v-10.2c0,0,1.4-0.9,3.2-1c2.2-0.2,4.3,0.5,4.3,5.7
			C197.2,111.8,196.3,112.9,193.3,112.8z"/>
		<path class="st0" d="M128.2,95.4h-4.6c0,0,0-6.1,0-6.1c0-0.2-0.1-0.3-0.4-0.3h-6.3c-0.2,0-0.4,0.1-0.4,0.3v6.3
			c0,0-3.2,0.8-3.4,0.8c-0.2,0.1-0.4,0.3-0.4,0.5v4c0,0.3,0.2,0.5,0.5,0.5h3.2c0,0,0,4.1,0,9.5c0,7.1,5,7.8,8.3,7.8
			c1.5,0,3.4-0.5,3.7-0.6c0.2-0.1,0.3-0.3,0.3-0.5l0-4.4c0-0.3-0.2-0.5-0.5-0.5c-0.3,0-1,0.1-1.7,0.1c-2.3,0-3-1.1-3-2.4
			c0-1.4,0-9,0-9h4.6c0.3,0,0.5-0.2,0.5-0.5v-5C128.7,95.6,128.5,95.4,128.2,95.4z"/>
	</g>
	<g>
		<g>
			<g>
				<g>
					<defs>
						<rect id="SVGID_1_" x="114.7" y="24.3" width="49.2" height="48.4"/>
					</defs>
					<clipPath id="SVGID_2_">
						<use xlink:href="#SVGID_1_"  style="overflow:visible;"/>
					</clipPath>
					<g id="XMLID_2_" class="st1">
						<g>
							<g>
								<defs>
									<rect id="SVGID_3_" x="114.7" y="24.3" width="49.2" height="48.4"/>
								</defs>
								<clipPath id="SVGID_4_">
									<use xlink:href="#SVGID_3_"  style="overflow:visible;"/>
								</clipPath>
								<path id="XMLID_9_" class="st2" d="M160.9,49c0-12-9.7-21.6-21.6-21.6c-12,0-21.6,9.7-21.6,21.6c0,9.5,6.1,17.6,14.6,20.4
									c0.5-0.4,1.1-0.8,1.1-1.6c0-1.2,0-4.2,0-4.2s-1,0.2-2.3,0.2c-3.4,0-4.5-2.2-5-3.4c-0.7-1.6-1.5-2.3-2.4-2.9
									c-0.6-0.3-0.7-0.8,0-0.9c3-0.6,3.8,3.4,5.8,4c1.4,0.5,3.3,0.2,4.2-0.3c0.1-1.2,1-2.2,1.7-2.8c-5.1-0.5-8.1-2.2-9.6-5
									l-0.2-0.3l-0.4-0.9l-0.1-0.3c-0.5-1.4-0.7-3.1-0.7-4.9c0-3.3,1-4.5,2.4-6.2c-1-3.7,0.4-6.3,0.4-6.3s2.2-0.5,6.3,2.5
									c2.3-1,8.2-1,11.1-0.2c1.7-1.2,4.9-2.8,6.2-2.3c0.3,0.6,1.1,2.2,0.5,5.8c0.5,0.8,2.7,2.4,2.7,7.2c0,1.7-0.2,3.2-0.6,4.5
									l-0.2,0.6c0,0-0.1,0.3-0.2,0.6l-0.1,0.3c-1.5,3.3-4.6,4.5-9.6,5c1.6,1,2.1,2.3,2.1,5.7c0,3.4,0,3.9,0,4.7
									c0,0.7,0.6,1.2,1.1,1.6C154.8,66.6,160.9,58.5,160.9,49"/>
							</g>
						</g>
					</g>
				</g>
			</g>
		</g>
	</g>
</g>
</svg>
